<?xml version="1.0" encoding="iso-8859-1"?>
<!-- Uploaded to: SVG Repo, www.svgrepo.com, Generator: SVG Repo Mixer Tools -->
<svg height="800px" width="800px" version="1.1" id="Layer_1" xmlns="http://www.w3.org/2000/svg" xmlns:xlink="http://www.w3.org/1999/xlink" 
	 viewBox="0 0 314.203 314.203" xml:space="preserve">
<g>
	<g>
		<g>
			<path style="fill:#4EFFBB;" d="M312.632,137.916c-8.829-11.735-22.269-18.434-36.868-18.434
				c-20.682,0-38.263,13.671-44.15,32.454l-12.742-12.742c-2.206-2.209-5.539-2.867-8.442-1.665
				c-1.085,0.466-2.014,1.124-2.75,1.974c-1.277,1.394-2.014,3.216-2.014,5.19v48.216c0,1.935,0.736,3.757,2.014,5.151
				c0.736,0.853,1.704,1.512,2.789,1.974c0.929,0.427,1.935,0.619,2.942,0.619c2.014,0,3.988-0.814,5.5-2.284
				c4.881-4.92,10.071-10.146,14.368-14.407c7.125,16.46,23.468,28,42.485,28c12.817,0,24.709-5.151,33.578-14.485
				c2.867-3.059,2.789-7.862-0.156-10.804l-17.932-17.932l20.682-20.682C314.684,145.312,314.955,140.975,312.632,137.916z"/>
			<path style="fill:#4EFFBB;" d="M207.022,198.718l-30.635-30.632l29.935-29.935l18.629-18.629
				c2.711-2.711,3.02-7.047,0.697-10.146c-16.691-22.076-42.019-34.741-69.556-34.741c-43.994,0-80.477,32.802-86.365,75.209
				l-36.868-36.907c-2.245-2.209-5.539-2.867-8.442-1.665c-2.906,1.202-4.802,4.027-4.802,7.164v99.491
				c0,3.137,1.896,5.965,4.802,7.165c0.968,0.388,1.974,0.58,2.942,0.58c2.014,0,4.027-0.775,5.5-2.284
				c11.657-11.696,28.348-28.348,39.038-38.921c9.992,37.139,43.958,64.598,84.195,64.598c24.129,0,46.629-9.722,63.281-27.342
				c2.903-3.059,2.828-7.823-0.117-10.804L207.022,198.718z"/>
		</g>
		<g>
			<g id="XMLID_15_">
				<g>
					<g>
						<path style="fill:#222051;" d="M293.017,128.419c2.323,3.059,2.053,7.396-0.697,10.146l-20.682,20.682l17.932,17.932
							c2.942,2.942,3.02,7.744,0.156,10.804c-8.868,9.334-20.757,14.485-33.578,14.485c-19.017,0-35.36-11.54-42.485-28
							c-4.3,4.258-9.488,9.488-14.368,14.407c-1.512,1.473-3.486,2.284-5.5,2.284c-1.007,0-2.014-0.192-2.942-0.619
							c-1.085-0.466-2.053-1.124-2.789-1.974c-1.277-1.394-2.014-3.216-2.014-5.151v-48.219c0-1.974,0.736-3.796,2.014-5.19
							c0.736-0.853,1.665-1.509,2.75-1.974c2.903-1.202,6.236-0.541,8.442,1.665l12.742,12.742
							c5.887-18.783,23.468-32.454,44.15-32.454C270.748,109.985,284.187,116.684,293.017,128.419z M255.217,153.748l20.874-20.874
							c-5.5-4.763-12.508-7.396-19.946-7.396c-16.965,0-30.75,13.788-30.75,30.75c0,0.349,0.039,0.697,0.078,1.046
							c0.27,1.007,0.349,2.014,0.231,3.059c2.014,14.987,14.873,26.644,30.44,26.644c5.965,0,11.618-1.665,16.499-4.802
							l-17.427-17.466C252.157,161.687,252.157,156.807,255.217,153.748z M207.001,159.364l-5.461-5.461v10.807
							C203.632,162.616,205.453,160.873,207.001,159.364z"/>
					</g>
					<g>
						<path style="fill:#302C58;" d="M276.091,132.873l-20.874,20.874c-3.059,3.059-3.059,7.94,0,10.96l17.427,17.466
							c-4.881,3.137-10.533,4.802-16.499,4.802c-15.57,0-28.427-11.657-30.44-26.644c0.117-1.046,0.039-2.053-0.231-3.059
							c-0.039-0.349-0.078-0.697-0.078-1.046c0-16.962,13.788-30.75,30.75-30.75C263.583,125.477,270.595,128.11,276.091,132.873z
							 M259.478,137.327c0-2.672-2.17-4.841-4.841-4.841c-2.672,0-4.841,2.17-4.841,4.841c0,2.711,2.17,4.841,4.841,4.841
							C257.308,142.168,259.478,140.038,259.478,137.327z"/>
					</g>
					<g>
						<path style="fill:#222051;" d="M206.033,99.876c2.323,3.098,2.014,7.435-0.697,10.146l-18.629,18.629l-29.935,29.938
							l30.635,30.632l12.237,12.198c2.942,2.981,3.02,7.745,0.117,10.807c-16.652,17.62-39.155,27.342-63.281,27.342
							c-40.237,0-74.202-27.459-84.195-64.598c-10.69,10.572-27.381,27.227-39.038,38.921c-1.473,1.512-3.486,2.284-5.5,2.284
							c-0.968,0-1.974-0.192-2.942-0.58C1.896,214.396,0,211.568,0,208.431V108.94c0-3.137,1.896-5.965,4.802-7.164
							c2.903-1.199,6.197-0.541,8.442,1.665l36.868,36.907C56,97.94,92.48,65.138,136.477,65.138
							C164.014,65.138,189.342,77.802,206.033,99.876z M140.351,153.129l49.03-49.07c-13.593-14.948-32.532-23.429-52.904-23.429
							c-39.54,0-71.723,32.183-71.723,71.723c0,1.238,0.156,2.44,0.192,3.678c0.388,0.929,0.619,1.899,0.619,2.942
							c0,0.619-0.078,1.277-0.231,1.86c4.222,35.552,34.467,63.242,71.143,63.242c17.313,0,33.617-6.119,46.59-17.31l-42.716-42.716
							c-1.434-1.434-2.284-3.408-2.284-5.461S138.917,154.562,140.351,153.129z M46.707,158.82l-31.215-31.215v62.121
							c3.603-3.603,7.591-7.591,11.618-11.579C36.132,169.122,42.329,162.965,46.707,158.82z"/>
					</g>
					<g>
						<path style="fill:#222051;" d="M137.021,92.789c5.617,0,10.146,4.571,10.146,10.185s-4.532,10.146-10.146,10.146
							c-5.617,0-10.185-4.532-10.185-10.146S131.404,92.789,137.021,92.789z"/>
					</g>
					<g>
						<path style="fill:#302C58;" d="M15.492,127.605l31.215,31.215c-4.376,4.144-10.572,10.302-19.597,19.327
							c-4.027,3.988-8.018,7.979-11.618,11.579C15.492,189.726,15.492,127.605,15.492,127.605z"/>
					</g>
				</g>
			</g>
		</g>
	</g>
</g>
</svg>
